<mxfile host="app.diagrams.net" agent="Mozilla/5.0 (Windows NT 10.0; Win64; x64) AppleWebKit/537.36 (KHTML, like Gecko) Chrome/131.0.0.0 Safari/537.36" version="24.8.4">
  <diagram name="PÃ¡gina-1" id="chzfgTJBm8Ap6LM2HJm5">
    <mxGraphModel dx="880" dy="460" grid="1" gridSize="10" guides="1" tooltips="1" connect="1" arrows="1" fold="1" page="1" pageScale="1" pageWidth="827" pageHeight="1169" math="0" shadow="0">
      <root>
        <mxCell id="0" />
        <mxCell id="1" parent="0" />
        <mxCell id="eKhdFr_pmLKWMcAik7gy-1" value="" style="whiteSpace=wrap;html=1;aspect=fixed;" vertex="1" parent="1">
          <mxGeometry x="180" y="95" width="490" height="490" as="geometry" />
        </mxCell>
        <mxCell id="eKhdFr_pmLKWMcAik7gy-2" value="Actor" style="shape=umlActor;verticalLabelPosition=bottom;verticalAlign=top;html=1;" vertex="1" parent="1">
          <mxGeometry x="130" y="110" width="30" height="60" as="geometry" />
        </mxCell>
        <mxCell id="eKhdFr_pmLKWMcAik7gy-3" value="&lt;font style=&quot;vertical-align: inherit;&quot;&gt;&lt;font style=&quot;vertical-align: inherit;&quot;&gt;escolhe o produto&amp;nbsp;&lt;/font&gt;&lt;/font&gt;" style="ellipse;whiteSpace=wrap;html=1;align=center;" vertex="1" parent="1">
          <mxGeometry x="320" y="140" width="100" height="40" as="geometry" />
        </mxCell>
        <mxCell id="eKhdFr_pmLKWMcAik7gy-4" value="Actor" style="shape=umlActor;verticalLabelPosition=bottom;verticalAlign=top;html=1;" vertex="1" parent="1">
          <mxGeometry x="690" y="110" width="30" height="60" as="geometry" />
        </mxCell>
        <mxCell id="eKhdFr_pmLKWMcAik7gy-7" value="" style="endArrow=open;endFill=1;endSize=12;html=1;rounded=0;exitX=0;exitY=0.129;exitDx=0;exitDy=0;exitPerimeter=0;" edge="1" parent="1" source="eKhdFr_pmLKWMcAik7gy-1">
          <mxGeometry width="160" relative="1" as="geometry">
            <mxPoint x="200" y="160" as="sourcePoint" />
            <mxPoint x="320" y="160" as="targetPoint" />
          </mxGeometry>
        </mxCell>
        <mxCell id="eKhdFr_pmLKWMcAik7gy-9" value="&lt;font style=&quot;vertical-align: inherit;&quot;&gt;&lt;font style=&quot;vertical-align: inherit;&quot;&gt;escolher se que fazer o cadastro na loja&amp;nbsp;&lt;/font&gt;&lt;/font&gt;" style="ellipse;whiteSpace=wrap;html=1;align=center;" vertex="1" parent="1">
          <mxGeometry x="304" y="205" width="110" height="60" as="geometry" />
        </mxCell>
        <mxCell id="eKhdFr_pmLKWMcAik7gy-10" value="&lt;font style=&quot;vertical-align: inherit;&quot;&gt;&lt;font style=&quot;vertical-align: inherit;&quot;&gt;gerencia as compras&amp;nbsp;&lt;/font&gt;&lt;/font&gt;" style="ellipse;whiteSpace=wrap;html=1;align=center;" vertex="1" parent="1">
          <mxGeometry x="480" y="130" width="100" height="40" as="geometry" />
        </mxCell>
        <mxCell id="eKhdFr_pmLKWMcAik7gy-12" value="" style="endArrow=open;endFill=1;endSize=12;html=1;rounded=0;exitX=1.002;exitY=0.118;exitDx=0;exitDy=0;exitPerimeter=0;entryX=1;entryY=0.5;entryDx=0;entryDy=0;" edge="1" parent="1" source="eKhdFr_pmLKWMcAik7gy-1" target="eKhdFr_pmLKWMcAik7gy-10">
          <mxGeometry width="160" relative="1" as="geometry">
            <mxPoint x="480" y="190" as="sourcePoint" />
            <mxPoint x="620" y="192" as="targetPoint" />
          </mxGeometry>
        </mxCell>
        <mxCell id="eKhdFr_pmLKWMcAik7gy-13" value="&lt;font style=&quot;vertical-align: inherit;&quot;&gt;&lt;font style=&quot;vertical-align: inherit;&quot;&gt;gerenciar o cadastro de todos os clientes&amp;nbsp;&lt;/font&gt;&lt;/font&gt;" style="ellipse;whiteSpace=wrap;html=1;align=center;" vertex="1" parent="1">
          <mxGeometry x="475" y="210" width="110" height="50" as="geometry" />
        </mxCell>
        <mxCell id="eKhdFr_pmLKWMcAik7gy-14" value="" style="endArrow=open;endFill=1;endSize=12;html=1;rounded=0;exitX=0.994;exitY=0.151;exitDx=0;exitDy=0;exitPerimeter=0;entryX=1;entryY=0.5;entryDx=0;entryDy=0;" edge="1" parent="1" source="eKhdFr_pmLKWMcAik7gy-1" target="eKhdFr_pmLKWMcAik7gy-13">
          <mxGeometry width="160" relative="1" as="geometry">
            <mxPoint x="681" y="163" as="sourcePoint" />
            <mxPoint x="590" y="160" as="targetPoint" />
          </mxGeometry>
        </mxCell>
        <mxCell id="eKhdFr_pmLKWMcAik7gy-15" value="" style="endArrow=open;endFill=1;endSize=12;html=1;rounded=0;exitX=0.002;exitY=0.155;exitDx=0;exitDy=0;exitPerimeter=0;entryX=0;entryY=0.5;entryDx=0;entryDy=0;" edge="1" parent="1" source="eKhdFr_pmLKWMcAik7gy-1" target="eKhdFr_pmLKWMcAik7gy-9">
          <mxGeometry width="160" relative="1" as="geometry">
            <mxPoint x="190" y="168" as="sourcePoint" />
            <mxPoint x="330" y="170" as="targetPoint" />
          </mxGeometry>
        </mxCell>
        <mxCell id="eKhdFr_pmLKWMcAik7gy-16" value="&lt;font style=&quot;vertical-align: inherit;&quot;&gt;&lt;font style=&quot;vertical-align: inherit;&quot;&gt;fazer o pagamento no caixa&amp;nbsp;&lt;/font&gt;&lt;/font&gt;" style="ellipse;whiteSpace=wrap;html=1;align=center;" vertex="1" parent="1">
          <mxGeometry x="315" y="270" width="110" height="60" as="geometry" />
        </mxCell>
        <mxCell id="eKhdFr_pmLKWMcAik7gy-17" value="" style="endArrow=open;endFill=1;endSize=12;html=1;rounded=0;exitX=0.004;exitY=0.206;exitDx=0;exitDy=0;exitPerimeter=0;entryX=0.036;entryY=0.617;entryDx=0;entryDy=0;entryPerimeter=0;" edge="1" parent="1" target="eKhdFr_pmLKWMcAik7gy-16">
          <mxGeometry width="160" relative="1" as="geometry">
            <mxPoint x="180.00000000000003" y="195.94000000000005" as="sourcePoint" />
            <mxPoint x="308.04" y="320" as="targetPoint" />
          </mxGeometry>
        </mxCell>
        <mxCell id="eKhdFr_pmLKWMcAik7gy-18" value="&lt;font style=&quot;vertical-align: inherit;&quot;&gt;&lt;font style=&quot;vertical-align: inherit;&quot;&gt;fazer o cadastro do cliente&amp;nbsp;&amp;nbsp;&lt;/font&gt;&lt;/font&gt;" style="ellipse;whiteSpace=wrap;html=1;align=center;" vertex="1" parent="1">
          <mxGeometry x="280" y="380" width="110" height="50" as="geometry" />
        </mxCell>
        <mxCell id="eKhdFr_pmLKWMcAik7gy-19" value="Actor" style="shape=umlActor;verticalLabelPosition=bottom;verticalAlign=top;html=1;" vertex="1" parent="1">
          <mxGeometry x="110" y="390" width="30" height="60" as="geometry" />
        </mxCell>
        <mxCell id="eKhdFr_pmLKWMcAik7gy-20" value="" style="endArrow=open;endFill=1;endSize=12;html=1;rounded=0;exitX=0;exitY=0.655;exitDx=0;exitDy=0;exitPerimeter=0;entryX=0;entryY=0.68;entryDx=0;entryDy=0;entryPerimeter=0;" edge="1" parent="1" source="eKhdFr_pmLKWMcAik7gy-1" target="eKhdFr_pmLKWMcAik7gy-18">
          <mxGeometry width="160" relative="1" as="geometry">
            <mxPoint x="160.00000000000003" y="310.00000000000006" as="sourcePoint" />
            <mxPoint x="299" y="421.06" as="targetPoint" />
          </mxGeometry>
        </mxCell>
        <mxCell id="eKhdFr_pmLKWMcAik7gy-21" value="&lt;font style=&quot;vertical-align: inherit;&quot;&gt;&lt;font style=&quot;vertical-align: inherit;&quot;&gt;fechar a compra do cliente&amp;nbsp;&lt;/font&gt;&lt;/font&gt;" style="ellipse;whiteSpace=wrap;html=1;align=center;" vertex="1" parent="1">
          <mxGeometry x="285" y="460" width="105" height="50" as="geometry" />
        </mxCell>
        <mxCell id="eKhdFr_pmLKWMcAik7gy-22" value="" style="endArrow=open;endFill=1;endSize=12;html=1;rounded=0;exitX=0.002;exitY=0.729;exitDx=0;exitDy=0;exitPerimeter=0;entryX=0;entryY=0.5;entryDx=0;entryDy=0;" edge="1" parent="1" source="eKhdFr_pmLKWMcAik7gy-1" target="eKhdFr_pmLKWMcAik7gy-21">
          <mxGeometry width="160" relative="1" as="geometry">
            <mxPoint x="185" y="476" as="sourcePoint" />
            <mxPoint x="285" y="474" as="targetPoint" />
          </mxGeometry>
        </mxCell>
      </root>
    </mxGraphModel>
  </diagram>
</mxfile>
